# xmcd CD database file
#
# Track frame offsets:
#	187
#	17025
#	32962
#	46727
#	61490
#	75480
#	90307
#	105667
#	121200
#	142510
#	158482
#	169910
#	183002
#	197217
#	210087
#
# Disc length: 2986 seconds
#
# Revision: 1
# Processed by: cddbd v1.5.2PL0 Copyright (c) Steve Scherf et al.
# Submitted via: CDex 1.50
#
DISCID=ab0ba80f
DTITLE=GLENN MILLER ORCHESTRA - DOUBLE DELUXE
DYEAR=1990
DGENRE=Jazz
TTITLE0=Moonlight Serenade
TTITLE1=In The Mood
TTITLE2=Pennsylvania 6-5000
TTITLE3=Perfidia
TTITLE4=Little Brown Jug
TTITLE5=Moonlight Cocktail
TTITLE6=Tuxedo Junction
TTITLE7=At Last
TTITLE8=Swing Low Sweet Chariot
TTITLE9=Anvil Chorus
TTITLE10=Don't Sit Under The Apple Tree
TTITLE11=Along The Santafe Trail
TTITLE12=Everybody Loves My Baby
TTITLE13=Lamplighters Serenade
TTITLE14=My Sentiments
EXTD=YEAR: 1990
EXTT0=
EXTT1=
EXTT2=
EXTT3=
EXTT4=
EXTT5=
EXTT6=
EXTT7=
EXTT8=
EXTT9=
EXTT10=
EXTT11=
EXTT12=
EXTT13=
EXTT14=
PLAYORDER=
